<?xml version="1.0" encoding="utf-8"?>
<!-- Generator: Adobe Illustrator 24.2.1, SVG Export Plug-In . SVG Version: 6.00 Build 0)  -->
<svg version="1.1" id="Layer_1" xmlns="http://www.w3.org/2000/svg" xmlns:xlink="http://www.w3.org/1999/xlink" x="0px" y="0px"
	 viewBox="0 0 200 200" style="enable-background:new 0 0 200 200;" xml:space="preserve">
<style type="text/css">
	.st0{fill:#FFFFFF;}
	.st1{fill:#8FB3D9;}
</style>
<rect x="79.01" y="66.58" class="st0" width="70.19" height="7.3"/>
<g>
	<path class="st1" d="M100.02,146.78c-14.87,0-29.73,0.04-44.6-0.02c-7.62-0.03-10.29-2.64-10.3-10.15
		c-0.05-24.68-0.05-49.37,0-74.05c0.02-7.52,2.68-10.12,10.31-10.13c29.95-0.04,59.9-0.04,89.85,0c7.21,0.01,9.96,2.7,9.98,9.81
		c0.06,24.9,0.06,49.8,0,74.71c-0.02,7.09-2.79,9.78-9.99,9.81C130.19,146.83,115.11,146.78,100.02,146.78z"/>
	<path class="st0" d="M100.2,73.38c15.08,0,30.17,0.12,45.24-0.09c3.71-0.05,4.72,0.98,4.69,4.68c-0.18,19.22-0.21,38.44,0,57.65
		c0.05,4.6-1.42,6.02-6.01,5.99c-29.29-0.17-58.58-0.17-87.87,0c-4.6,0.03-6.05-1.41-6-6c0.21-19.22,0.19-38.44,0-57.65
		c-0.04-3.71,1-4.72,4.69-4.67C70.03,73.5,85.12,73.38,100.2,73.38z"/>
	<path class="st0" d="M100.19,68.14c-15.09,0-30.17-0.03-45.26,0.03c-2.83,0.01-5.18,0.16-4.67-3.96c0.4-3.2-0.66-6.64,4.67-6.62
		c30.17,0.13,60.34,0.13,90.51,0c5.32-0.02,4.27,3.42,4.67,6.62c0.52,4.12-1.85,3.96-4.67,3.95
		C130.36,68.11,115.28,68.14,100.19,68.14z"/>
	<path class="st1" d="M108.24,125.78c-2.43-0.05-4.52-1.25-4.99-3.47c-1.78-8.29-9.2-12.28-13.64-18.5c-1.6-2.25-3.71-2.3-5.45-0.14
		c-2.77,3.43-7.39,5.32-8.01,10.64c-0.28,2.4-2.73,3.96-5.52,3.51c-2.34-0.38-3.97-1.84-4.4-4.23c-0.51-2.78,0.91-4.91,3.34-5.69
		c6.41-2.04,10.6-6,12.57-12.49c0.66-2.16,2.43-3.66,4.94-3.62c2.78,0.04,4.38,1.7,5.11,4.23c2.26,7.93,9.33,12.19,13.97,18.3
		c1.2,1.58,2.75,1.29,3.75-0.32c4.48-7.26,12.69-11.97,14.29-21.25c0.38-2.18,2.41-3.59,4.91-3.59c2.53,0,4.15,1.52,4.89,3.67
		c0.91,2.61-0.33,4.6-2.59,6.06c-8.69,5.62-14.94,13.18-18.34,23.03C112.32,124.12,110.71,125.54,108.24,125.78z"/>
	<path class="st1" d="M55.86,65.54c-1.82-0.36-2.82-1.14-2.78-2.62c0.05-1.8,1.23-2.78,2.96-2.5c1.34,0.22,2.25,1.29,2.06,2.77
		C57.92,64.66,56.76,65.19,55.86,65.54z"/>
	<path class="st1" d="M66.06,62.49c-0.19,1.84-0.98,2.84-2.42,2.9c-1.79,0.07-2.83-1.05-2.67-2.79c0.13-1.38,1.13-2.3,2.63-2.22
		C65.11,60.45,65.67,61.59,66.06,62.49z"/>
	<path class="st1" d="M73.89,63.07c-0.3,1.41-1.09,2.4-2.58,2.33c-1.8-0.09-2.76-1.29-2.46-3c0.24-1.32,1.34-2.27,2.82-2.01
		C73.04,60.63,73.88,61.57,73.89,63.07z"/>
</g>
</svg>
