<?xml version="1.0" encoding="utf-8"?>
<!-- Generator: Adobe Illustrator 24.2.1, SVG Export Plug-In . SVG Version: 6.00 Build 0)  -->
<svg version="1.1" id="Layer_1" xmlns="http://www.w3.org/2000/svg" xmlns:xlink="http://www.w3.org/1999/xlink" x="0px" y="0px"
	 viewBox="0 0 200 200" style="enable-background:new 0 0 200 200;" xml:space="preserve">
<style type="text/css">
	.st0{fill:#8FB3D9;}
	.st1{fill:#FFFFFF;}
	.st2{fill:#2F455D;}
</style>
<g>
	<g>
		<path class="st0" d="M173.51,140.78H26.88V55.43h146.62V140.78z M33.13,134.54h134.14V61.67H33.13V134.54z"/>
	</g>
	<g>
		<path class="st1" d="M145.56,96.58l0.55,0.73c-45.58,61.27-83.82,0-83.82,0l-0.09-0.12c0,0,38.24-61.27,83.82,0"/>
		<path class="st0" d="M104.14,127.67c-0.51,0-1.02-0.01-1.53-0.03c-10.61-0.43-21.42-5.56-31.26-14.81
			c-6.82-6.42-10.95-12.68-11.61-13.71l-0.01-0.01l-1.33-1.72l1.15-1.84c0.18-0.28,4.39-6.98,11.7-13.85
			c9.85-9.26,20.66-14.38,31.26-14.81c15.87-0.65,31.22,8.76,45.65,27.98l1.85,2.46l-1.39,1.87
			C134.55,118.09,119.59,127.67,104.14,127.67z M65.98,97.19c3.85,5.42,18.03,23.46,36.91,24.21c13.31,0.55,26.52-7.57,39.3-24.08
			c-12.81-16.6-26.06-24.74-39.4-24.21C84.06,73.86,69.96,91.61,65.98,97.19z"/>
	</g>
	<g>
		<circle class="st0" cx="104.11" cy="97.21" r="11.92"/>
	</g>
	<g>
		<path class="st0" d="M159.41,126.53h-6.24v-9.16c0-5.43-4.42-9.84-9.84-9.84h-9.16c-5.43,0-9.85,4.42-9.85,9.84v9.16h-6.24v-9.16
			c0-8.87,7.22-16.09,16.09-16.09h9.16c8.87,0,16.09,7.22,16.09,16.09V126.53z"/>
	</g>
	<g>
		<path class="st1" d="M161.46,126.44v25.59c0,4.47-3.76,8.13-8.35,8.13h-28.73c-4.59,0-8.35-3.66-8.35-8.13v-25.59H161.46z"/>
		<path class="st0" d="M153.11,163.28h-28.73c-6.33,0-11.47-5.05-11.47-11.25v-28.71h51.68v28.71
			C164.58,158.24,159.44,163.28,153.11,163.28z M119.15,129.57v22.47c0,2.76,2.35,5.01,5.23,5.01h28.73c2.88,0,5.23-2.25,5.23-5.01
			v-22.47H119.15z"/>
	</g>
	<g>
		<path class="st0" d="M143.57,138.47c0-2.67-2.16-4.83-4.83-4.83c-2.67,0-4.83,2.16-4.83,4.83c0,1.78,0.98,3.32,2.41,4.16v9.29
			h4.83v-9.29C142.6,141.8,143.57,140.26,143.57,138.47z"/>
	</g>
</g>
<g>
	<line class="st2" x1="53.19" y1="58.01" x2="30.81" y2="80.38"/>
	
		<rect x="26.17" y="67.89" transform="matrix(0.7071 -0.7071 0.7071 0.7071 -36.6279 49.9625)" class="st0" width="31.65" height="2.62"/>
</g>
<g>
	<line class="st2" x1="29.74" y1="97.18" x2="67.33" y2="59.59"/>
	
		<rect x="21.95" y="76.83" transform="matrix(0.7071 -0.7071 0.7071 0.7071 -41.214 57.2788)" class="st0" width="53.16" height="3.12"/>
</g>
</svg>
