<?xml version="1.0" encoding="utf-8"?>
<!-- Generator: Adobe Illustrator 24.2.1, SVG Export Plug-In . SVG Version: 6.00 Build 0)  -->
<svg version="1.1" id="Layer_1" xmlns="http://www.w3.org/2000/svg" xmlns:xlink="http://www.w3.org/1999/xlink" x="0px" y="0px"
	 viewBox="0 0 200 200" style="enable-background:new 0 0 200 200;" xml:space="preserve">
<style type="text/css">
	.st0{fill:#8FB3D9;}
	.st1{fill:#EB2027;}
	.st2{fill:#ED1C24;}
</style>
<g>
	<g>
		<path class="st0" d="M112.72,127.55c-3.13,3.2-7.49,5.12-13.06,5.75c-0.25,0-0.38,0.13-0.38,0.38l0.1,6.65
			c0,0.63-0.32,0.95-0.95,0.95h-6.27c-0.63,0-0.95-0.32-0.95-0.95l0.09-6.75c0-0.25-0.13-0.38-0.38-0.38
			c-5.64-0.76-10.04-2.74-13.21-5.94c-3.17-3.2-4.75-7.3-4.75-12.3v-2.75c0-0.63,0.32-0.95,0.95-0.95h6.56
			c0.63,0,0.95,0.32,0.95,0.95v2.28c0,3.23,1.33,5.89,3.99,7.98c2.66,2.09,6.27,3.13,10.83,3.13c4.12,0,7.24-0.92,9.36-2.75
			c2.12-1.84,3.18-4.24,3.18-7.22c0-1.96-0.54-3.64-1.62-5.04c-1.08-1.39-2.66-2.67-4.75-3.85c-2.09-1.17-5.13-2.58-9.12-4.23
			c-4.43-1.77-7.92-3.39-10.45-4.85c-2.53-1.46-4.64-3.37-6.32-5.75C74.84,89.54,74,86.55,74,82.94c0-4.81,1.49-8.72,4.47-11.73
			c2.98-3.01,7.03-4.86,12.16-5.56c0.25,0,0.38-0.13,0.38-0.38l-0.09-7.32c0-0.63,0.32-0.95,0.95-0.95h6.18
			c0.63,0,0.95,0.32,0.95,0.95l-0.1,7.41c0,0.25,0.13,0.41,0.38,0.48c5.45,0.76,9.74,2.79,12.87,6.08c3.14,3.29,4.7,7.44,4.7,12.45
			v1.9c0,0.63-0.32,0.95-0.95,0.95h-6.65c-0.63,0-0.95-0.32-0.95-0.95v-1.43c0-3.29-1.24-6.03-3.71-8.22
			c-2.47-2.19-5.92-3.28-10.36-3.28c-3.74,0-6.62,0.81-8.65,2.42c-2.03,1.62-3.04,3.94-3.04,6.98c0,2.09,0.52,3.8,1.57,5.13
			c1.05,1.33,2.57,2.52,4.56,3.56c2,1.04,5.05,2.39,9.17,4.04c4.31,1.77,7.77,3.41,10.4,4.89c2.63,1.49,4.81,3.45,6.56,5.89
			c1.74,2.44,2.61,5.46,2.61,9.07C117.42,120.28,115.85,124.35,112.72,127.55z"/>
	</g>
	<g>
		<line class="st1" x1="35.92" y1="40.7" x2="152.99" y2="158.51"/>
		
			<rect x="91.21" y="16.56" transform="matrix(0.7093 -0.7049 0.7049 0.7093 -42.7548 95.5258)" class="st2" width="6.49" height="166.09"/>
	</g>
</g>
</svg>
