<?xml version="1.0" encoding="utf-8"?>
<!-- Generator: Adobe Illustrator 24.2.1, SVG Export Plug-In . SVG Version: 6.00 Build 0)  -->
<svg version="1.1" id="Layer_1" xmlns="http://www.w3.org/2000/svg" xmlns:xlink="http://www.w3.org/1999/xlink" x="0px" y="0px"
	 viewBox="0 0 200 200" style="enable-background:new 0 0 200 200;" xml:space="preserve">
<style type="text/css">
	.st0{fill:#8FB3D9;}
	.st1{fill:#EB2027;}
	.st2{fill:#ED1C24;}
</style>
<g>
	<polyline class="st0" points="19.18,144.62 181.22,144.62 181.22,139.54 19.18,139.54 	"/>
	<polyline class="st0" points="19.18,116.31 181.22,116.31 181.22,111.22 19.18,111.22 	"/>
	<polyline class="st0" points="19.18,87.99 181.22,87.99 181.22,82.91 19.18,82.91 	"/>
	<polyline class="st0" points="19.18,59.67 181.22,59.67 181.22,54.59 19.18,54.59 	"/>
	<polyline class="st0" points="56.14,57.21 56.14,85.53 61.22,85.53 61.22,57.21 	"/>
	<polyline class="st0" points="97.66,57.21 97.66,85.53 102.74,85.53 102.74,57.21 	"/>
	<polyline class="st0" points="139.17,57.21 139.17,85.53 144.26,85.53 144.26,57.21 	"/>
	<polyline class="st0" points="34.43,85.45 34.43,113.76 39.51,113.76 39.51,85.45 	"/>
	<polyline class="st0" points="76.18,85.45 76.18,113.76 81.27,113.76 81.27,85.45 	"/>
	<polyline class="st0" points="117.94,85.45 117.94,113.76 123.02,113.76 123.02,85.45 	"/>
	<polyline class="st0" points="159.69,85.45 159.69,113.76 164.78,113.76 164.78,85.45 	"/>
	<polyline class="st0" points="56.14,113.68 56.14,142 61.22,142 61.22,113.68 	"/>
	<polyline class="st0" points="97.66,113.68 97.66,142 102.74,142 102.74,113.68 	"/>
	<polyline class="st0" points="139.17,113.68 139.17,142 144.26,142 144.26,113.68 	"/>
	<line class="st1" x1="41.66" y1="40.7" x2="158.73" y2="158.51"/>
	<polyline class="st2" points="39.36,42.99 156.43,160.8 161.03,156.22 43.97,38.41 	"/>
</g>
</svg>
