<?xml version="1.0" encoding="utf-8"?>
<!-- Generator: Adobe Illustrator 24.2.1, SVG Export Plug-In . SVG Version: 6.00 Build 0)  -->
<svg version="1.1" id="Layer_1" xmlns="http://www.w3.org/2000/svg" xmlns:xlink="http://www.w3.org/1999/xlink" x="0px" y="0px"
	 viewBox="0 0 200 200" style="enable-background:new 0 0 200 200;" xml:space="preserve">
<style type="text/css">
	.st0{fill:#8FB3D9;}
	.st1{fill:#FFFFFF;}
	.st2{fill:#EB2027;}
	.st3{fill:#ED1C24;}
</style>
<g>
	<g>
		<g>
			<path class="st0" d="M143.15,104.17c-12.98,0-23.54-10.56-23.54-23.54s10.56-23.54,23.54-23.54s23.54,10.56,23.54,23.54
				S156.13,104.17,143.15,104.17z M143.15,59.84c-11.47,0-20.8,9.33-20.8,20.8s9.33,20.8,20.8,20.8c11.47,0,20.8-9.33,20.8-20.8
				S154.62,59.84,143.15,59.84z"/>
		</g>
		<g>
			<path class="st0" d="M143.15,58.47v22.17l15.84-15.5C158.99,65.13,152.28,58.32,143.15,58.47z"/>
		</g>
		<g>
			<g>
				<line class="st1" x1="159.25" y1="80.41" x2="165.58" y2="80.41"/>
				<rect x="159.25" y="79.73" class="st0" width="6.33" height="1.37"/>
			</g>
			<g>
				<line class="st1" x1="121.25" y1="80.41" x2="126.8" y2="80.41"/>
				<rect x="121.25" y="79.73" class="st0" width="5.56" height="1.37"/>
			</g>
		</g>
		<g>
			<g>
				<line class="st1" x1="154.61" y1="91.61" x2="159.09" y2="96.09"/>
				
					<rect x="156.17" y="90.68" transform="matrix(0.7071 -0.7071 0.7071 0.7071 -20.4181 138.4078)" class="st0" width="1.37" height="6.33"/>
			</g>
			<g>
				<line class="st1" x1="131.67" y1="68.66" x2="127.74" y2="64.74"/>
				
					<rect x="129.02" y="63.92" transform="matrix(0.7072 -0.7071 0.7071 0.7072 -9.1779 111.2406)" class="st0" width="1.37" height="5.56"/>
			</g>
		</g>
		<g>
			<g>
				<line class="st1" x1="154.61" y1="69.21" x2="159.09" y2="64.74"/>
				
					<rect x="153.69" y="66.29" transform="matrix(0.7071 -0.7071 0.7071 0.7071 -1.4169 130.5266)" class="st0" width="6.33" height="1.37"/>
			</g>
			<g>
				<line class="st1" x1="127.74" y1="96.09" x2="131.67" y2="92.16"/>
				
					<rect x="126.92" y="93.44" transform="matrix(0.7071 -0.7071 0.7071 0.7071 -28.5656 119.2811)" class="st0" width="5.56" height="1.37"/>
			</g>
		</g>
		<g>
			<g>
				<line class="st1" x1="143.41" y1="64.57" x2="143.41" y2="58.24"/>
				<rect x="142.73" y="58.24" class="st0" width="1.37" height="6.33"/>
			</g>
			<g>
				<line class="st1" x1="143.41" y1="102.58" x2="143.41" y2="97.02"/>
				<rect x="142.73" y="97.02" class="st0" width="1.37" height="5.55"/>
			</g>
		</g>
	</g>
	<g>
		<path class="st0" d="M86.92,91.43c-13.26,0-24.04-10.78-24.04-24.04s10.78-24.04,24.04-24.04s24.04,10.78,24.04,24.04
			S100.17,91.43,86.92,91.43z M86.92,48.43c-10.45,0-18.96,8.5-18.96,18.96c0,10.45,8.5,18.96,18.96,18.96s18.96-8.5,18.96-18.96
			C105.87,56.93,97.37,48.43,86.92,48.43z"/>
	</g>
	<g>
		<path class="st0" d="M126.81,148.24h-5.08v-21.33c0-15.42-12.54-27.96-27.96-27.96h-13.7c-15.42,0-27.96,12.54-27.96,27.96v21.33
			h-5.08v-21.33c0-18.22,14.82-33.04,33.04-33.04h13.7c18.22,0,33.04,14.82,33.04,33.04V148.24z"/>
	</g>
	<g>
		<line class="st2" x1="36.01" y1="40.7" x2="153.07" y2="158.51"/>
		
			<rect x="91.29" y="16.56" transform="matrix(0.7093 -0.7049 0.7049 0.7093 -42.7293 95.5877)" class="st3" width="6.49" height="166.09"/>
	</g>
</g>
</svg>
