<?xml version="1.0" encoding="utf-8"?>
<!-- Generator: Adobe Illustrator 24.2.1, SVG Export Plug-In . SVG Version: 6.00 Build 0)  -->
<svg version="1.1" id="Layer_1" xmlns="http://www.w3.org/2000/svg" xmlns:xlink="http://www.w3.org/1999/xlink" x="0px" y="0px"
	 viewBox="0 0 200 200" style="enable-background:new 0 0 200 200;" xml:space="preserve">
<style type="text/css">
	.st0{fill:#8FB3D9;}
</style>
<path class="st0" d="M94.77,49.37c-1.36,2.63,2.7,8.82-2.75,8.84c-4.6,0.02-1.66-5.91-2.29-9.13c-0.44-2.26-0.09-4.67-0.08-7.01
	c0-1.77,0.09-3.6,2.43-3.71c2.34-0.11,2.68,1.61,2.69,3.45C94.77,44.16,94.77,46.5,94.77,49.37z"/>
<path class="st0" d="M68.68,45.97C71.19,46.07,82.08,57,81.87,58.8c-0.32,2.65-2.29,3.38-4.03,1.87
	c-3.82-3.33-7.47-6.92-10.74-10.79C65.61,48.09,66.86,46.36,68.68,45.97z"/>
<path class="st0" d="M104.87,61.31c-0.34-0.17-1.23-0.38-1.74-0.93c-0.99-1.07-0.89-2.43,0.08-3.43c3.39-3.5,6.85-6.93,10.33-10.33
	c0.82-0.8,1.93-0.85,2.96-0.35c1.09,0.52,1.4,1.52,1.29,2.65C117.63,50.47,106.89,61.12,104.87,61.31z"/>
<path class="st0" d="M148.96,108.86c-1.36-0.94-2.88-1.19-3.05-3.49c-0.63-8.54-9.54-12.92-10.91-21.17
	c-0.03-0.16-0.3-0.32-0.49-0.39c-3.58-1.32-1.78-2.8-0.19-4.39c4.82-4.83,9.8-9.52,14.34-14.6c3.78-4.23,3.63-8.97-0.18-13.24
	c-3.67-4.1-9.16-4.27-13.74-0.54c-1.65,1.34-3.1,2.93-4.6,4.44c-14.01,14.01-28.01,28.03-42.23,42.25
	c-2.74-4.33-4.96-8.44-7.76-12.12C74.23,77.83,66.2,74,56.39,74.18c-4.91,0.09-7.79,3.78-9.82,7.29c-1.94,3.36,2.15,5.25,4.21,6.93
	c7.74,6.32,12.26,14.35,14.65,23.93c1.33,5.33,3.37,10.49,5.12,15.72c0.68,2.01,1.38,3.98,2.97,5.56
	c6.69,6.58,13.1,13.47,20.03,19.78c8.12,7.38,19.82,7.57,27.88,0.11c10.16-9.41,19.88-19.32,29.47-29.32
	C155.76,119.1,154.71,112.84,148.96,108.86z M145.72,121.86c-8.87,8.94-17.81,17.81-26.73,26.69c-3.16,3.15-7.07,4.62-11.44,4.99
	c-4.65-0.4-8.63-2.2-11.92-5.49c-5.58-5.59-11.12-11.22-16.78-16.72c-2.1-2.04-3-4.55-3.83-7.22c-1.58-5.06-3.55-10.02-4.95-15.12
	c-2.48-9.02-6.42-16.99-14-22.9c-1.24-0.97-3.76-2.03-2.63-4.25c1.16-2.29,3.58-2.94,6.1-2.39c7.06,1.55,13.36,4.35,17.32,10.85
	c2.1,3.45,4.46,6.79,6.19,10.42c2.39,5.04,4.68,4.96,8.42,1.15c14.2-14.47,28.56-28.79,43.01-43c2.57-2.53,5.16-8,9.75-3.62
	c4.66,4.44-0.74,7.11-3.24,9.76c-5.86,6.2-12.05,12.1-18.03,18.18c-1.24,1.27-3.26,2.51-1.52,4.8c1.45,1.9,3.02,1.04,4.45,0.05
	c2.42-1.67,4.42-1.05,6.16,1c1.97,2.33,0.73,4.28-0.77,6.27c-1.17,1.55-3.94,2.61-2.29,5.23c1.75,2.78,3.64,0.72,5.45-0.17
	c2.39-1.18,4.05-0.06,5.49,1.77c1.48,1.88,0.85,3.59-0.41,5.23c-0.65,0.84-1.44,1.57-2.11,2.4c-0.95,1.17-1.96,2.33-0.57,3.91
	c1.25,1.42,2.52,1.29,3.92,0.3c2.77-1.96,5.18-1.66,7.02,1.29C149.65,118.22,147.48,120.09,145.72,121.86z"/>
</svg>
