<?xml version="1.0" encoding="utf-8"?>
<!-- Generator: Adobe Illustrator 24.2.1, SVG Export Plug-In . SVG Version: 6.00 Build 0)  -->
<svg version="1.1" id="Layer_1" xmlns="http://www.w3.org/2000/svg" xmlns:xlink="http://www.w3.org/1999/xlink" x="0px" y="0px"
	 viewBox="0 0 200 200" style="enable-background:new 0 0 200 200;" xml:space="preserve">
<style type="text/css">
	.st0{fill:#8FB3D9;}
	.st1{fill:#FFFFFF;}
</style>
<g>
	<path class="st0" d="M144.5,117.31c-1.32-7.11-0.4-11.37,7.21-12.38c5.28-0.71,8-5.59,8.14-10.83c0.3-10.56,0.32-21.14,0.03-31.7
		c-0.2-7.13-4.86-11.87-12-11.98c-17.68-0.26-35.36-0.24-53.04-0.02C88.29,50.48,83.6,55,83.02,60.52c-0.26,2.47,0.18,3.72,3.1,3.63
		c6.29-0.19,12.6-0.18,18.9-0.03c11.65,0.29,19.61,7.73,19.93,19.33c0.36,12.79,0.38,25.61-0.04,38.4
		c-0.37,11.36-8.77,18.98-20.21,19.2c-6.91,0.14-13.88-0.37-20.7,0.45c-10.28,1.23-19.39,5.57-27.08,12.71
		c-1.55,1.44-3.08,3.49-5.76,2.21c-2.59-1.24-2.18-3.61-2.18-5.82c0-1.63-0.11-3.26,0.02-4.88c0.26-3.27-0.32-5.24-4.09-6.68
		c-7.7-2.93-11.67-9.16-11.75-17.5c-0.11-10.77-0.13-21.54,0-32.31c0.12-10.26,8.05-18.44,18.39-18.9
		c6.29-0.28,12.6-0.29,18.89-0.06c3.55,0.13,5.37-0.65,4.96-4.61c-1.57-14.96,10.13-24.14,24.93-23.3
		c15.19,0.86,30.47,0.15,45.71,0.2c13.12,0.04,21.22,8.16,21.25,21.23c0.03,10.16,0.07,20.32-0.03,30.48
		c-0.07,8.13-4.08,14.32-11.35,17.18c-4.39,1.73-4.43,4.1-4.57,7.67c-0.13,3.25,1.88,7.57-1.92,9.51c-3.98,2.03-5.82-2.6-8.58-4.32
		c-2.41-1.5-4.65-3.28-7.13-4.64c-2.42-1.33-4.2-3.03-2.81-5.75c1.68-3.28,4.34-2.06,6.75-0.65
		C139.57,114.36,141.45,115.5,144.5,117.31z"/>
	<path class="st1" d="M56.3,144.97c0-2.72-0.13-4.29,0.03-5.84c0.35-3.41-0.99-5.11-4.44-5.95c-8.74-2.14-11.39-5.63-11.44-14.45
		c-0.05-9.14-0.11-18.27,0.02-27.41c0.12-8.75,4.95-13.56,13.57-13.6c16.65-0.06,33.3-0.06,49.95,0
		c8.84,0.03,13.35,4.62,13.41,13.56c0.06,9.54,0.07,19.09,0,28.63c-0.06,8.68-4.31,13-12.99,13.41c-0.61,0.03-1.22,0.02-1.83,0.01
		C86.4,132.88,70.56,133.9,56.3,144.97z"/>
	<path class="st0" d="M78.92,100c-6.5,0-13.01-0.01-19.51,0.01c-2.64,0.01-5.25-0.52-5.21-3.67c0.04-2.93,2.33-3.89,5.14-3.88
		c13.21,0.05,26.42,0.02,39.64,0.02c2.76,0,4.93,0.86,4.83,4.08c-0.09,3.03-2.41,3.41-4.76,3.43C92.34,100.02,85.63,100,78.92,100z"
		/>
	<path class="st0" d="M65.78,115.77c-2.64-0.01-5.28,0.02-7.92-0.01c-2.17-0.02-3.58-1.34-3.7-3.3c-0.14-2.28,1.38-3.96,3.67-4.04
		c5.28-0.18,10.57-0.12,15.85-0.01c2.44,0.05,3.68,1.62,3.6,4.01c-0.08,2.18-1.46,3.29-3.58,3.34
		C71.06,115.83,68.42,115.78,65.78,115.77z"/>
</g>
</svg>
